<svg xmlns="http://www.w3.org/2000/svg" xmlns:xlink="http://www.w3.org/1999/xlink" width="964" zoomAndPan="magnify" viewBox="0 0 723 731.999995" height="976" preserveAspectRatio="xMidYMid meet" version="1.0"><defs><g/></defs><path stroke-linecap="butt" transform="matrix(0.75, 0, 0, 0.75, 126.449996, 201.45001)" fill="none" stroke-linejoin="miter" d="M 99.96251 235.795831 C 81.603134 235.795831 66.2073 232.509373 53.775007 225.931247 C 41.405215 219.42083 32.092715 210.566663 25.842714 199.368746 C 19.530214 188.170829 16.368756 175.769787 16.368756 162.165619 C 16.368756 151.551035 18.452089 141.524993 22.618756 132.087493 C 26.722923 122.582284 32.42084 114.769784 39.712507 108.649992 C 47.066674 102.462491 55.691674 99.368741 65.587508 99.368741 C 69.561467 99.368741 71.545842 100.9677 71.545842 104.1552 C 71.545842 114.051034 75.743759 122.155201 84.144801 128.472909 C 92.540634 134.72291 102.894802 137.84791 115.196885 137.84791 C 123.988553 137.84791 133.233345 135.50416 142.931262 130.816659 C 152.696887 126.129159 162.108346 118.738534 171.155222 108.649992 C 180.269805 98.493741 187.889597 85.405199 194.009389 69.389573 C 199.868765 54.222906 205.920848 38.889572 212.170849 23.394779 C 218.420849 7.899987 223.696891 -4.761472 227.993766 -14.594806 C 215.426057 -17.261473 203.738556 -17.198973 192.931264 -14.396889 C 182.19168 -11.600014 173.530222 -6.454181 166.957305 1.030195 C 160.446888 8.45207 157.191679 18.056237 157.191679 29.837488 C 157.191679 35.696863 158.655221 40.55103 161.587513 44.389572 C 164.514596 48.233322 168.12918 50.149989 172.426055 50.149989 C 174.248972 54.446864 174.34793 59.592698 172.717722 65.582281 C 171.155222 71.571865 168.030221 77.301032 163.342721 82.769782 C 158.722929 88.238532 152.733346 92.858324 145.37397 96.634366 C 138.082303 100.347908 129.618761 102.202075 119.983344 102.202075 C 109.045844 102.202075 99.832301 99.728116 92.347926 94.780199 C 84.926051 89.832282 79.327092 83.452074 75.55105 75.639573 C 71.837508 67.764573 69.983342 59.264573 69.983342 50.149989 C 69.983342 32.83228 73.498967 16.394779 80.530217 0.837486 C 87.629176 -14.787514 97.785426 -28.527098 110.998969 -40.376057 C 124.217719 -52.287516 139.93647 -61.631267 158.165638 -68.4021 C 176.462513 -75.172934 196.806264 -78.558351 219.202099 -78.558351 C 246.936475 -78.558351 264.254184 -72.3396 271.155226 -59.907308 C 278.123977 -47.537516 277.733352 -30.70939 269.983351 -9.417722 C 267.577101 -2.193764 264.644809 6.498945 261.196893 16.655196 C 257.743767 26.748946 253.998976 37.587488 249.962517 49.17603 C 245.993767 60.764573 242.056267 72.155198 238.150016 83.353115 C 234.306266 94.551033 230.920849 104.577075 227.993766 113.431242 C 213.342724 156.858327 195.733348 188.108329 175.16043 207.181246 C 154.650012 226.259372 129.587511 235.795831 99.96251 235.795831 Z M 99.96251 235.795831 " stroke="#ff00c7" stroke-width="15" stroke-opacity="1" stroke-miterlimit="4"/><g fill="#ff00c7" fill-opacity="1"><g transform="translate(153.742964, 365.700002)"><g><path d="M 47.703125 12.59375 C 33.898438 12.59375 22.347656 10.144531 13.046875 5.25 C 3.742188 0.351562 -3.253906 -6.289062 -7.953125 -14.6875 C -12.648438 -23.09375 -15 -32.394531 -15 -42.59375 C -15 -50.59375 -13.445312 -58.144531 -10.34375 -65.25 C -7.25 -72.351562 -2.953125 -78.203125 2.546875 -82.796875 C 8.046875 -87.398438 14.5 -89.703125 21.90625 -89.703125 C 24.90625 -89.703125 26.40625 -88.5 26.40625 -86.09375 C 26.40625 -78.695312 29.550781 -72.648438 35.84375 -67.953125 C 42.144531 -63.253906 49.894531 -60.90625 59.09375 -60.90625 C 65.695312 -60.90625 72.648438 -62.65625 79.953125 -66.15625 C 87.253906 -69.65625 94.300781 -75.203125 101.09375 -82.796875 C 107.894531 -90.398438 113.597656 -100.203125 118.203125 -112.203125 C 122.597656 -123.597656 127.144531 -135.09375 131.84375 -146.6875 C 136.550781 -158.289062 140.503906 -167.796875 143.703125 -175.203125 C 134.296875 -177.203125 125.539062 -177.148438 117.4375 -175.046875 C 109.34375 -172.953125 102.84375 -169.101562 97.9375 -163.5 C 93.039062 -157.894531 90.59375 -150.695312 90.59375 -141.90625 C 90.59375 -137.5 91.691406 -133.84375 93.890625 -130.9375 C 96.097656 -128.039062 98.800781 -126.59375 102 -126.59375 C 103.394531 -123.394531 103.492188 -119.546875 102.296875 -115.046875 C 101.097656 -110.546875 98.75 -106.242188 95.25 -102.140625 C 91.75 -98.046875 87.25 -94.597656 81.75 -91.796875 C 76.25 -88.992188 69.898438 -87.59375 62.703125 -87.59375 C 54.503906 -87.59375 47.601562 -89.441406 42 -93.140625 C 36.394531 -96.847656 32.191406 -101.648438 29.390625 -107.546875 C 26.597656 -113.453125 25.203125 -119.800781 25.203125 -126.59375 C 25.203125 -139.59375 27.847656 -151.941406 33.140625 -163.640625 C 38.441406 -175.347656 46.039062 -185.648438 55.9375 -194.546875 C 65.84375 -203.453125 77.644531 -210.453125 91.34375 -215.546875 C 105.050781 -220.648438 120.300781 -223.203125 137.09375 -223.203125 C 157.894531 -223.203125 170.894531 -218.550781 176.09375 -209.25 C 181.300781 -199.945312 181.003906 -187.296875 175.203125 -171.296875 C 173.398438 -165.898438 171.195312 -159.398438 168.59375 -151.796875 C 166 -144.203125 163.203125 -136.050781 160.203125 -127.34375 C 157.203125 -118.644531 154.25 -110.09375 151.34375 -101.6875 C 148.445312 -93.289062 145.898438 -85.796875 143.703125 -79.203125 C 132.703125 -46.597656 119.5 -23.144531 104.09375 -8.84375 C 88.695312 5.445312 69.898438 12.59375 47.703125 12.59375 Z M 47.703125 12.59375 "/></g></g></g><path stroke-linecap="butt" transform="matrix(0.75, 0, 0, 0.75, 198.622142, 215.32435)" fill="none" stroke-linejoin="miter" d="M 480.847583 249.432129 C 482.738208 246.499838 484.884042 245.489421 487.2955 246.400879 C 489.701751 247.312338 491.946542 249.041504 494.029876 251.577963 C 496.180917 254.11963 497.805918 256.723796 498.915293 259.390463 C 496.243417 263.687338 493.024667 269.906089 489.248625 278.041506 C 485.535084 286.114423 481.07675 294.775882 475.868416 304.020674 C 470.660083 313.197757 464.571541 321.989425 457.607999 330.385258 C 450.706957 338.7863 442.925707 345.656092 434.264248 350.994634 C 425.607997 356.333176 415.811122 358.999843 404.873621 358.999843 C 390.222579 358.999843 379.09237 353.822759 371.472578 343.473801 C 363.857994 333.057133 360.045494 318.765466 360.045494 300.604007 C 360.045494 289.145673 361.446536 277.947756 364.248619 267.010255 C 367.045495 256.072755 370.300703 245.817546 374.014245 236.244629 C 377.790287 226.609212 381.076745 218.213378 383.87362 211.051919 C 386.675704 203.822752 388.076746 198.192544 388.076746 194.156085 C 388.076746 188.29671 385.535079 185.369626 380.456954 185.369626 C 377.009037 185.369626 373.555912 187.062335 370.107995 190.447751 C 366.65487 193.76546 362.910078 199.755044 358.873619 208.416502 C 354.904869 217.072753 350.378827 229.343587 345.300702 245.229004 C 340.222577 261.051922 334.49341 281.656089 328.113201 307.046715 C 324.665284 320.916508 319.649659 329.833175 313.076742 333.807133 C 306.566325 337.775884 299.95695 339.760259 293.248616 339.760259 C 280.748615 339.760259 272.352782 337.645675 268.055906 333.416508 C 263.821531 329.119633 261.706948 322.833175 261.706948 314.567549 C 261.706948 307.145674 262.910073 298.973798 265.321531 290.057131 C 267.727781 281.072756 270.399657 271.661297 273.32674 261.833172 C 276.259032 251.937338 278.894449 242.010254 281.238199 232.046712 C 283.649657 222.02067 284.852782 212.484211 284.852782 203.432127 C 284.852782 195.687335 283.910074 190.541501 282.019449 188.005043 C 280.196532 185.463376 277.95174 184.197751 275.279865 184.197751 C 269.42049 184.197751 265.680906 187.937335 264.050698 195.426918 C 255.264239 238.588379 243.055905 273.452964 227.430904 300.015465 C 211.868404 326.515466 194.029861 345.786301 173.915277 357.827968 C 153.795484 369.807135 132.378817 375.796719 109.654857 375.796719 C 94.227773 375.796719 81.368397 372.51026 71.081939 365.932135 C 60.79548 359.421718 53.144438 350.994634 48.134021 340.640467 C 43.055896 330.2238 40.514229 319.546716 40.514229 308.609216 C 40.514229 297.671715 42.72777 287.223798 47.154854 277.260256 C 51.519438 267.234214 57.70173 259.098796 65.712147 252.848796 C 73.717355 246.531088 83.061106 243.374837 93.73819 243.374837 C 97.712148 243.374837 99.696523 244.968587 99.696523 248.161296 C 99.696523 257.015463 103.571523 264.176922 111.316315 269.645672 C 119.066316 275.114422 128.665275 277.848797 140.123609 277.848797 C 151.321526 277.848797 161.837151 275.114422 171.670485 269.645672 C 181.566319 264.176922 190.514236 257.046713 198.524653 248.260254 C 206.529862 239.406087 213.467362 229.671712 219.326737 219.057128 C 225.186113 208.380044 229.644446 197.70296 232.701738 187.025876 C 235.764238 176.348792 237.295488 166.749834 237.295488 158.218583 C 237.295488 147.541499 234.82153 139.406082 229.873613 133.807124 C 224.925696 128.208165 218.186112 125.406082 209.654862 125.406082 C 200.087153 125.406082 191.555903 128.952957 184.071527 136.051916 C 176.649652 143.083166 172.93611 152.880041 172.93611 165.44775 C 172.93611 172.348792 174.857985 178.208168 178.701735 183.025876 C 182.540277 187.775876 187.389236 190.150876 193.248611 190.150876 C 195.66007 195.489418 195.269445 201.968585 192.076736 209.588377 C 188.889236 217.202961 183.352777 223.874836 175.477777 229.604003 C 167.597568 235.33317 157.670484 238.197754 145.691317 238.197754 C 129.936108 238.197754 116.852774 232.468587 106.436107 221.010253 C 96.08194 209.551919 90.904856 194.48421 90.904856 175.796709 C 90.904856 160.630042 93.967356 146.176916 100.087148 132.437332 C 106.20694 118.702956 115.061107 106.494622 126.64965 95.817539 C 138.300692 85.140455 152.232984 76.739413 168.446527 70.619621 C 184.722569 64.499829 202.884028 61.442537 222.936113 61.442537 C 257.831948 61.442537 284.821532 71.307121 303.89445 91.03108 C 322.972576 110.760248 334.232993 137.286291 337.686118 170.619626 C 344.326743 156.755042 352.232994 143.275874 361.415286 130.19254 C 370.660078 117.103998 380.68612 105.452956 391.493412 95.228997 C 402.300705 84.942538 413.430913 76.739413 424.889247 70.619621 C 436.347581 64.499829 447.675707 61.442537 458.873624 61.442537 C 474.368416 61.442537 485.305917 65.577954 491.686126 73.843579 C 498.066334 82.114413 501.259043 91.682122 501.259043 102.557122 C 501.259043 110.562331 499.795501 118.44254 496.863209 126.187332 C 493.936126 133.937332 490.191334 140.348791 485.634042 145.426916 C 481.13925 150.505041 476.488208 153.0415 471.6705 153.0415 C 468.738208 153.0415 466.201749 152.327958 464.050708 150.895666 C 461.967374 149.395666 459.592374 148.650874 456.920499 148.650874 C 452.88404 148.650874 449.144457 151.057125 445.691332 155.874833 C 442.243415 160.630042 439.180915 166.812334 436.514248 174.432126 C 433.842373 181.984209 431.566331 190.057126 429.675706 198.650877 C 427.852789 207.176919 426.389247 215.317544 425.279872 223.062336 C 424.238206 230.744628 423.717372 236.994629 423.717372 241.812337 C 423.717372 250.083171 425.509039 256.817546 429.092373 262.02588 C 432.670498 267.234214 439.019456 269.83838 448.13404 269.83838 C 460.894457 269.83838 471.800708 263.036297 480.847583 249.432129 Z M 480.847583 249.432129 " stroke="#ff00c7" stroke-width="22.5" stroke-opacity="1" stroke-miterlimit="4"/><g fill="#ff00c7" fill-opacity="1"><g transform="translate(242.192453, 484.574336)"><g><path d="M 317.09375 -82.203125 C 318.5 -84.398438 320.097656 -85.148438 321.890625 -84.453125 C 323.691406 -83.753906 325.394531 -82.453125 327 -80.546875 C 328.601562 -78.648438 329.800781 -76.703125 330.59375 -74.703125 C 328.59375 -71.503906 326.191406 -66.851562 323.390625 -60.75 C 320.597656 -54.644531 317.25 -48.144531 313.34375 -41.25 C 309.445312 -34.351562 304.898438 -27.753906 299.703125 -21.453125 C 294.503906 -15.148438 288.65625 -10 282.15625 -6 C 275.65625 -2 268.300781 0 260.09375 0 C 249.09375 0 240.742188 -3.898438 235.046875 -11.703125 C 229.347656 -19.503906 226.5 -30.203125 226.5 -43.796875 C 226.5 -52.398438 227.546875 -60.800781 229.640625 -69 C 231.742188 -77.195312 234.195312 -84.894531 237 -92.09375 C 239.800781 -99.300781 242.25 -105.601562 244.34375 -111 C 246.445312 -116.394531 247.5 -120.59375 247.5 -123.59375 C 247.5 -128 245.597656 -130.203125 241.796875 -130.203125 C 239.203125 -130.203125 236.601562 -128.953125 234 -126.453125 C 231.394531 -123.953125 228.59375 -119.453125 225.59375 -112.953125 C 222.59375 -106.453125 219.191406 -97.25 215.390625 -85.34375 C 211.597656 -73.445312 207.300781 -58 202.5 -39 C 199.894531 -28.601562 196.144531 -21.90625 191.25 -18.90625 C 186.351562 -15.90625 181.40625 -14.40625 176.40625 -14.40625 C 167 -14.40625 160.695312 -16.003906 157.5 -19.203125 C 154.300781 -22.398438 152.703125 -27.097656 152.703125 -33.296875 C 152.703125 -38.898438 153.597656 -45.050781 155.390625 -51.75 C 157.191406 -58.445312 159.191406 -65.492188 161.390625 -72.890625 C 163.597656 -80.296875 165.597656 -87.75 167.390625 -95.25 C 169.191406 -102.75 170.09375 -109.898438 170.09375 -116.703125 C 170.09375 -122.503906 169.394531 -126.351562 168 -128.25 C 166.601562 -130.144531 164.90625 -131.09375 162.90625 -131.09375 C 158.5 -131.09375 155.695312 -128.296875 154.5 -122.703125 C 147.894531 -90.296875 138.742188 -64.144531 127.046875 -44.25 C 115.347656 -24.351562 101.945312 -9.90625 86.84375 -0.90625 C 71.75 8.09375 55.703125 12.59375 38.703125 12.59375 C 27.097656 12.59375 17.445312 10.144531 9.75 5.25 C 2.050781 0.351562 -3.695312 -5.992188 -7.5 -13.796875 C -11.300781 -21.597656 -13.203125 -29.597656 -13.203125 -37.796875 C -13.203125 -45.992188 -11.550781 -53.84375 -8.25 -61.34375 C -4.945312 -68.84375 -0.296875 -74.941406 5.703125 -79.640625 C 11.703125 -84.347656 18.703125 -86.703125 26.703125 -86.703125 C 29.703125 -86.703125 31.203125 -85.5 31.203125 -83.09375 C 31.203125 -76.5 34.097656 -71.148438 39.890625 -67.046875 C 45.691406 -62.953125 52.894531 -60.90625 61.5 -60.90625 C 69.894531 -60.90625 77.789062 -62.953125 85.1875 -67.046875 C 92.59375 -71.148438 99.296875 -76.5 105.296875 -83.09375 C 111.296875 -89.695312 116.492188 -97 120.890625 -105 C 125.296875 -113 128.648438 -121 130.953125 -129 C 133.253906 -137 134.40625 -144.195312 134.40625 -150.59375 C 134.40625 -158.59375 132.550781 -164.691406 128.84375 -168.890625 C 125.144531 -173.097656 120.097656 -175.203125 113.703125 -175.203125 C 106.503906 -175.203125 100.101562 -172.550781 94.5 -167.25 C 88.894531 -161.945312 86.09375 -154.597656 86.09375 -145.203125 C 86.09375 -140.003906 87.539062 -135.601562 90.4375 -132 C 93.34375 -128.394531 97 -126.59375 101.40625 -126.59375 C 103.195312 -122.59375 102.894531 -117.742188 100.5 -112.046875 C 98.101562 -106.347656 93.953125 -101.347656 88.046875 -97.046875 C 82.148438 -92.742188 74.703125 -90.59375 65.703125 -90.59375 C 53.898438 -90.59375 44.097656 -94.894531 36.296875 -103.5 C 28.492188 -112.101562 24.59375 -123.40625 24.59375 -137.40625 C 24.59375 -148.800781 26.894531 -159.648438 31.5 -169.953125 C 36.101562 -180.253906 42.753906 -189.40625 51.453125 -197.40625 C 60.148438 -205.40625 70.597656 -211.703125 82.796875 -216.296875 C 94.992188 -220.898438 108.59375 -223.203125 123.59375 -223.203125 C 149.800781 -223.203125 170.050781 -215.800781 184.34375 -201 C 198.644531 -186.195312 207.097656 -166.296875 209.703125 -141.296875 C 214.703125 -151.703125 220.648438 -161.800781 227.546875 -171.59375 C 234.453125 -181.394531 241.953125 -190.144531 250.046875 -197.84375 C 258.148438 -205.550781 266.5 -211.703125 275.09375 -216.296875 C 283.695312 -220.898438 292.195312 -223.203125 300.59375 -223.203125 C 312.195312 -223.203125 320.398438 -220.097656 325.203125 -213.890625 C 330.003906 -207.691406 332.40625 -200.492188 332.40625 -192.296875 C 332.40625 -186.296875 331.300781 -180.394531 329.09375 -174.59375 C 326.894531 -168.800781 324.09375 -164.003906 320.6875 -160.203125 C 317.289062 -156.398438 313.796875 -154.5 310.203125 -154.5 C 308.003906 -154.5 306.101562 -155.046875 304.5 -156.140625 C 302.894531 -157.242188 301.09375 -157.796875 299.09375 -157.796875 C 296.09375 -157.796875 293.289062 -155.992188 290.6875 -152.390625 C 288.09375 -148.796875 285.796875 -144.148438 283.796875 -138.453125 C 281.796875 -132.753906 280.09375 -126.703125 278.6875 -120.296875 C 277.289062 -113.898438 276.191406 -107.800781 275.390625 -102 C 274.597656 -96.195312 274.203125 -91.5 274.203125 -87.90625 C 274.203125 -81.695312 275.550781 -76.644531 278.25 -72.75 C 280.945312 -68.851562 285.695312 -66.90625 292.5 -66.90625 C 302.101562 -66.90625 310.300781 -72.003906 317.09375 -82.203125 Z M 317.09375 -82.203125 "/></g></g></g></svg>