<svg xmlns="http://www.w3.org/2000/svg" xmlns:xlink="http://www.w3.org/1999/xlink" width="1095" zoomAndPan="magnify" viewBox="0 0 821.25 519.749985" height="693" preserveAspectRatio="xMidYMid meet" version="1.0"><defs><g/></defs><path stroke-linecap="butt" transform="matrix(0.531965, 0, 0, 0.531965, 89.689354, 142.99811)" fill="none" stroke-linejoin="miter" d="M 99.964854 235.796364 C 81.607219 235.796364 66.208834 232.506676 53.777044 225.934643 C 41.403997 219.421354 32.093005 210.56563 25.844066 199.367473 C 19.529039 188.176658 16.371526 175.77424 16.371526 162.167561 C 16.371526 151.549504 18.456953 141.526235 22.620465 132.083068 C 26.725232 122.581156 32.416099 114.768146 39.707752 108.651382 C 47.065492 102.461188 55.693581 99.369762 65.592018 99.369762 C 69.56461 99.369762 71.547235 100.963204 71.547235 104.157433 C 71.547235 114.048527 75.747462 122.155259 84.147916 128.470285 C 92.541026 134.719224 102.894733 137.847365 115.201692 137.847365 C 123.991327 137.847365 133.236232 135.504931 142.936407 130.820063 C 152.702669 126.127851 162.109121 118.740739 171.155764 108.651382 C 180.268494 98.488595 187.890584 85.403273 194.007348 69.388072 C 199.867106 54.224665 205.925125 38.892368 212.174064 23.391181 C 218.423003 7.897336 223.695316 -4.762089 227.991003 -14.594438 C 215.427037 -17.259967 203.744238 -17.201223 192.935263 -14.396176 C 182.192374 -11.598472 173.534914 -6.458334 166.955537 1.031581 C 160.449591 8.455409 157.189275 18.05278 157.189275 29.838382 C 157.189275 35.698139 158.657886 40.551898 161.587764 44.392315 C 164.517643 48.232733 168.130426 50.14927 172.426112 50.14927 C 174.24719 54.4523 174.349993 59.592437 172.719835 65.58437 C 171.155764 71.568959 168.027623 77.303884 163.342754 82.767116 C 158.723973 88.237692 152.732041 92.863816 145.374301 96.638146 C 138.082648 100.346388 129.62345 102.204181 119.98202 102.204181 C 109.048212 102.204181 99.832679 99.729571 92.350107 94.780353 C 84.926279 89.831134 79.323529 83.45002 75.549199 75.637011 C 71.840957 67.765257 69.983164 59.269343 69.983164 50.14927 C 69.983164 32.834348 73.500487 16.39325 80.52779 0.833318 C 87.628523 -14.792701 97.783967 -28.524212 111.001465 -40.375901 C 124.218962 -52.286335 139.940441 -61.634043 158.165901 -68.404339 C 176.464792 -75.174635 196.805052 -78.559783 219.201367 -78.559783 C 246.936083 -78.559783 264.258347 -72.340216 271.153475 -59.908425 C 278.122034 -47.535379 277.732852 -30.705099 269.98593 -9.417585 C 267.577408 -2.19202 264.647529 6.502156 261.196294 16.6576 C 257.745058 26.746956 254.000101 37.585304 249.961421 49.172644 C 245.996172 60.767326 242.052952 72.156403 238.146447 83.354561 C 234.30603 94.552718 230.920882 104.575987 227.991003 113.43171 C 213.34161 156.858533 195.732966 188.110571 175.157729 207.180482 C 154.655921 226.257737 129.586735 235.796364 99.964854 235.796364 Z M 99.964854 235.796364 " stroke="#ff00c7" stroke-width="15" stroke-opacity="1" stroke-miterlimit="4"/><g fill="#ff00c7" fill-opacity="1"><g transform="translate(109.047904, 259.498511)"><g><path d="M 33.828125 8.9375 C 24.046875 8.9375 15.851562 7.195312 9.25 3.71875 C 2.65625 0.25 -2.304688 -4.460938 -5.640625 -10.421875 C -8.972656 -16.378906 -10.640625 -22.976562 -10.640625 -30.21875 C -10.640625 -35.882812 -9.539062 -41.234375 -7.34375 -46.265625 C -5.144531 -51.304688 -2.097656 -55.457031 1.796875 -58.71875 C 5.703125 -61.988281 10.28125 -63.625 15.53125 -63.625 C 17.65625 -63.625 18.71875 -62.769531 18.71875 -61.0625 C 18.71875 -55.8125 20.953125 -51.519531 25.421875 -48.1875 C 29.890625 -44.851562 35.390625 -43.1875 41.921875 -43.1875 C 46.597656 -43.1875 51.523438 -44.425781 56.703125 -46.90625 C 61.878906 -49.394531 66.878906 -53.332031 71.703125 -58.71875 C 76.523438 -64.113281 80.566406 -71.066406 83.828125 -79.578125 C 86.953125 -87.660156 90.179688 -95.816406 93.515625 -104.046875 C 96.847656 -112.273438 99.648438 -119.015625 101.921875 -124.265625 C 95.253906 -125.679688 89.046875 -125.644531 83.296875 -124.15625 C 77.554688 -122.664062 72.945312 -119.9375 69.46875 -115.96875 C 66 -112 64.265625 -106.890625 64.265625 -100.640625 C 64.265625 -97.523438 65.039062 -94.9375 66.59375 -92.875 C 68.15625 -90.820312 70.070312 -89.796875 72.34375 -89.796875 C 73.332031 -87.523438 73.398438 -84.789062 72.546875 -81.59375 C 71.703125 -78.40625 70.035156 -75.359375 67.546875 -72.453125 C 65.066406 -69.546875 61.875 -67.097656 57.96875 -65.109375 C 54.070312 -63.117188 49.570312 -62.125 44.46875 -62.125 C 38.65625 -62.125 33.757812 -63.4375 29.78125 -66.0625 C 25.8125 -68.6875 22.832031 -72.09375 20.84375 -76.28125 C 18.863281 -80.46875 17.875 -84.972656 17.875 -89.796875 C 17.875 -99.015625 19.753906 -107.769531 23.515625 -116.0625 C 27.273438 -124.363281 32.664062 -131.671875 39.6875 -137.984375 C 46.707031 -144.296875 55.078125 -149.257812 64.796875 -152.875 C 74.515625 -156.5 85.328125 -158.3125 97.234375 -158.3125 C 111.992188 -158.3125 121.21875 -155.007812 124.90625 -148.40625 C 128.59375 -141.8125 128.378906 -132.84375 124.265625 -121.5 C 122.984375 -117.664062 121.421875 -113.050781 119.578125 -107.65625 C 117.734375 -102.269531 115.75 -96.488281 113.625 -90.3125 C 111.5 -84.144531 109.40625 -78.082031 107.34375 -72.125 C 105.289062 -66.175781 103.484375 -60.859375 101.921875 -56.171875 C 94.117188 -33.046875 84.753906 -16.410156 73.828125 -6.265625 C 62.910156 3.867188 49.578125 8.9375 33.828125 8.9375 Z M 33.828125 8.9375 "/></g></g></g><path stroke-linecap="butt" transform="matrix(0.531965, 0, 0, 0.531965, 140.880125, 152.838982)" fill="none" stroke-linejoin="miter" d="M 480.850265 249.430484 C 482.73743 246.500605 484.881602 245.487264 487.290124 246.405145 C 489.698645 247.315684 491.94562 249.041302 494.031047 251.574655 C 496.182562 254.115352 497.805377 256.722136 498.914178 259.387665 C 496.241307 263.690695 493.025049 269.902919 489.243376 278.046366 C 485.535134 286.116382 481.0779 294.773843 475.864331 304.018748 C 470.658106 313.197566 464.570714 321.987202 457.602156 330.387655 C 450.707028 338.788109 442.923391 345.653865 434.26593 350.992265 C 425.608469 356.330666 415.805492 359.003537 404.871684 359.003537 C 390.222291 359.003537 379.090221 353.826684 371.475474 343.472978 C 363.853384 333.053184 360.049682 318.763601 360.049682 300.604228 C 360.049682 289.14172 361.444862 277.943563 364.242566 267.009755 C 367.047612 256.068605 370.300585 245.817701 374.008828 236.249701 C 377.790501 226.608271 381.072846 218.215161 383.877892 211.04834 C 386.675596 203.822774 388.070776 198.190652 388.070776 194.159315 C 388.070776 188.299558 385.537423 185.369679 380.456029 185.369679 C 377.004794 185.369679 373.553558 187.058582 370.102323 190.44373 C 366.65843 193.76279 362.913473 199.754722 358.874793 208.412183 C 354.902201 217.069644 350.378879 229.347231 345.297486 245.230257 C 340.223436 261.047195 334.495853 281.659148 328.114739 307.044086 C 324.663504 320.915116 319.648198 329.836926 313.076164 333.802176 C 306.562875 337.774768 299.954127 339.764736 293.249918 339.764736 C 280.75204 339.764736 272.351586 337.642593 268.0559 333.412994 C 263.8263 329.117307 261.704158 322.831653 261.704158 314.563374 C 261.704158 307.146889 262.908419 298.97407 265.31694 290.052259 C 267.732805 281.071704 270.398334 271.665252 273.328212 261.832902 C 276.258091 251.934465 278.894247 242.006656 281.236682 232.049474 C 283.645203 222.018863 284.849464 212.480235 284.849464 203.433593 C 284.849464 195.68667 283.909553 190.546533 282.022389 188.005836 C 280.193968 185.465139 277.946993 184.194791 275.281465 184.194791 C 269.421708 184.194791 265.67675 187.939748 264.053935 195.42232 C 255.264299 238.592136 243.0528 273.449614 227.426781 300.016784 C 211.866849 326.510523 194.030571 345.78604 173.910603 357.828649 C 153.797977 369.80517 132.378288 375.797102 109.658879 375.797102 C 94.223779 375.797102 81.366091 372.507414 71.078472 365.93538 C 60.798197 359.422091 53.146734 350.992265 48.131428 340.638559 C 43.057378 330.226108 40.516681 319.549308 40.516681 308.608157 C 40.516681 297.674349 42.72694 287.225183 47.154802 277.260659 C 51.516576 267.23739 57.706771 259.101286 65.7107 252.845004 C 73.721972 246.529977 83.062337 243.372464 93.739138 243.372464 C 97.71173 243.372464 99.694354 244.97325 99.694354 248.160135 C 99.694354 257.015859 103.571487 264.175336 111.318409 269.645912 C 119.065331 275.116487 128.670046 277.848103 140.12521 277.848103 C 151.323368 277.848103 161.838622 275.116487 171.670971 269.645912 C 181.562065 264.175336 190.513248 257.045231 198.52452 248.255595 C 206.528449 239.407215 213.467635 229.670325 219.327392 219.059612 C 225.18715 208.382811 229.644383 197.70601 232.706437 187.02921 C 235.761147 176.352409 237.295846 166.747694 237.295846 158.222408 C 237.295846 147.538264 234.821237 139.402161 229.872018 133.806753 C 224.9228 128.204003 218.181876 125.406299 209.65659 125.406299 C 200.088591 125.406299 191.555962 128.952994 184.073389 136.053728 C 176.649562 143.081031 172.933976 152.876665 172.933976 165.447974 C 172.933976 172.343101 174.857857 178.202859 178.698274 183.019902 C 182.538691 187.778201 187.39245 190.150008 193.252207 190.150008 C 195.660729 195.488408 195.271547 201.972325 192.077318 209.587072 C 188.890433 217.201819 183.35377 223.876655 175.474673 229.604237 C 167.595576 235.33182 157.667767 238.195611 145.691245 238.195611 C 129.933051 238.195611 116.847729 232.468029 106.435278 221.012864 C 96.081572 209.550357 90.904719 194.48241 90.904719 175.794337 C 90.904719 160.63093 93.966772 146.172456 100.083536 132.440945 C 106.207643 118.702091 115.063367 106.490592 126.650706 95.813791 C 138.304133 85.13699 152.233907 76.74388 168.44737 70.619772 C 184.719578 64.503008 202.886294 61.440955 222.940175 61.440955 C 257.834368 61.440955 284.820092 71.302676 303.897347 91.033463 C 322.967258 110.756906 334.231503 137.287361 337.682739 170.617484 C 344.32086 156.753797 352.236672 143.279293 361.41549 130.193971 C 370.660395 117.108648 380.683664 105.455221 391.49264 95.23369 C 402.301615 84.946071 413.433685 76.74388 424.88885 70.619772 C 436.351357 64.503008 447.674347 61.440955 458.872504 61.440955 C 474.366348 61.440955 485.307499 65.575094 491.688613 73.843373 C 498.069727 82.111652 501.256613 91.679652 501.256613 102.554715 C 501.256613 110.565987 499.795345 118.437741 496.865466 126.184663 C 493.935588 133.931585 490.19063 140.349414 485.630593 145.423465 C 481.143987 150.504858 476.488491 153.045555 471.671448 153.045555 C 468.741569 153.045555 466.200872 152.325936 464.049357 150.89404 C 461.96393 149.396057 459.592124 148.647066 456.919252 148.647066 C 452.887915 148.647066 449.142958 151.055587 445.691722 155.872631 C 442.240487 160.63093 439.178433 166.813782 436.512904 174.428529 C 433.840033 181.984531 431.563686 190.054548 429.676521 198.645921 C 427.855444 207.17855 426.386833 215.314654 425.278032 223.061576 C 424.242661 230.742411 423.721304 236.99135 423.721304 241.815736 C 423.721304 250.084015 425.505666 256.817596 429.089077 262.023821 C 432.672487 267.23739 439.016886 269.836831 448.129616 269.836831 C 460.891844 269.836831 471.79628 263.037163 480.850265 249.430484 Z M 480.850265 249.430484 " stroke="#ff00c7" stroke-width="22.5" stroke-opacity="1" stroke-miterlimit="4"/><g fill="#ff00c7" fill-opacity="1"><g transform="translate(171.783984, 343.814524)"><g><path d="M 224.90625 -58.296875 C 225.90625 -59.859375 227.039062 -60.390625 228.3125 -59.890625 C 229.59375 -59.398438 230.800781 -58.476562 231.9375 -57.125 C 233.070312 -55.78125 233.921875 -54.398438 234.484375 -52.984375 C 233.066406 -50.710938 231.363281 -47.410156 229.375 -43.078125 C 227.394531 -38.753906 225.019531 -34.144531 222.25 -29.25 C 219.476562 -24.363281 216.25 -19.6875 212.5625 -15.21875 C 208.875 -10.75 204.722656 -7.09375 200.109375 -4.25 C 195.503906 -1.414062 190.296875 0 184.484375 0 C 176.679688 0 170.757812 -2.765625 166.71875 -8.296875 C 162.675781 -13.828125 160.65625 -21.414062 160.65625 -31.0625 C 160.65625 -37.164062 161.398438 -43.125 162.890625 -48.9375 C 164.378906 -54.75 166.113281 -60.207031 168.09375 -65.3125 C 170.082031 -70.425781 171.820312 -74.894531 173.3125 -78.71875 C 174.800781 -82.550781 175.546875 -85.535156 175.546875 -87.671875 C 175.546875 -90.785156 174.195312 -92.34375 171.5 -92.34375 C 169.65625 -92.34375 167.8125 -91.457031 165.96875 -89.6875 C 164.125 -87.914062 162.132812 -84.722656 160 -80.109375 C 157.875 -75.503906 155.460938 -68.976562 152.765625 -60.53125 C 150.078125 -52.09375 147.03125 -41.132812 143.625 -27.65625 C 141.78125 -20.28125 139.117188 -15.53125 135.640625 -13.40625 C 132.171875 -11.28125 128.660156 -10.21875 125.109375 -10.21875 C 118.441406 -10.21875 113.972656 -11.347656 111.703125 -13.609375 C 109.441406 -15.878906 108.3125 -19.21875 108.3125 -23.625 C 108.3125 -27.59375 108.945312 -31.953125 110.21875 -36.703125 C 111.5 -41.453125 112.914062 -46.453125 114.46875 -51.703125 C 116.03125 -56.953125 117.445312 -62.234375 118.71875 -67.546875 C 120 -72.867188 120.640625 -77.941406 120.640625 -82.765625 C 120.640625 -86.878906 120.144531 -89.609375 119.15625 -90.953125 C 118.164062 -92.304688 116.960938 -92.984375 115.546875 -92.984375 C 112.421875 -92.984375 110.429688 -91 109.578125 -87.03125 C 104.898438 -64.050781 98.410156 -45.503906 90.109375 -31.390625 C 81.816406 -17.273438 72.3125 -7.023438 61.59375 -0.640625 C 50.882812 5.742188 39.503906 8.9375 27.453125 8.9375 C 19.222656 8.9375 12.375 7.195312 6.90625 3.71875 C 1.445312 0.25 -2.625 -4.25 -5.3125 -9.78125 C -8.007812 -15.320312 -9.359375 -21 -9.359375 -26.8125 C -9.359375 -32.625 -8.1875 -38.191406 -5.84375 -43.515625 C -3.507812 -48.835938 -0.21875 -53.164062 4.03125 -56.5 C 8.289062 -59.832031 13.257812 -61.5 18.9375 -61.5 C 21.0625 -61.5 22.125 -60.644531 22.125 -58.9375 C 22.125 -54.257812 24.179688 -50.460938 28.296875 -47.546875 C 32.410156 -44.640625 37.519531 -43.1875 43.625 -43.1875 C 49.582031 -43.1875 55.179688 -44.640625 60.421875 -47.546875 C 65.671875 -50.460938 70.421875 -54.257812 74.671875 -58.9375 C 78.929688 -63.625 82.625 -68.800781 85.75 -74.46875 C 88.875 -80.144531 91.25 -85.816406 92.875 -91.484375 C 94.507812 -97.160156 95.328125 -102.269531 95.328125 -106.8125 C 95.328125 -112.488281 94.015625 -116.816406 91.390625 -119.796875 C 88.765625 -122.773438 85.179688 -124.265625 80.640625 -124.265625 C 75.535156 -124.265625 70.992188 -122.382812 67.015625 -118.625 C 63.046875 -114.863281 61.0625 -109.648438 61.0625 -102.984375 C 61.0625 -99.296875 62.085938 -96.175781 64.140625 -93.625 C 66.203125 -91.070312 68.796875 -89.796875 71.921875 -89.796875 C 73.191406 -86.953125 72.976562 -83.507812 71.28125 -79.46875 C 69.582031 -75.425781 66.640625 -71.878906 62.453125 -68.828125 C 58.265625 -65.785156 52.976562 -64.265625 46.59375 -64.265625 C 38.226562 -64.265625 31.28125 -67.3125 25.75 -73.40625 C 20.21875 -79.507812 17.453125 -87.523438 17.453125 -97.453125 C 17.453125 -105.535156 19.082031 -113.226562 22.34375 -120.53125 C 25.601562 -127.84375 30.316406 -134.332031 36.484375 -140 C 42.660156 -145.675781 50.070312 -150.144531 58.71875 -153.40625 C 67.375 -156.675781 77.023438 -158.3125 87.671875 -158.3125 C 106.253906 -158.3125 120.613281 -153.0625 130.75 -142.5625 C 140.894531 -132.0625 146.890625 -117.945312 148.734375 -100.21875 C 152.273438 -107.59375 156.492188 -114.753906 161.390625 -121.703125 C 166.285156 -128.660156 171.601562 -134.867188 177.34375 -140.328125 C 183.09375 -145.785156 189.015625 -150.144531 195.109375 -153.40625 C 201.210938 -156.675781 207.242188 -158.3125 213.203125 -158.3125 C 221.429688 -158.3125 227.25 -156.109375 230.65625 -151.703125 C 234.0625 -147.304688 235.765625 -142.203125 235.765625 -136.390625 C 235.765625 -132.140625 234.984375 -127.957031 233.421875 -123.84375 C 231.859375 -119.726562 229.867188 -116.320312 227.453125 -113.625 C 225.046875 -110.925781 222.566406 -109.578125 220.015625 -109.578125 C 218.453125 -109.578125 217.101562 -109.96875 215.96875 -110.75 C 214.832031 -111.53125 213.554688 -111.921875 212.140625 -111.921875 C 210.015625 -111.921875 208.03125 -110.644531 206.1875 -108.09375 C 204.34375 -105.539062 202.707031 -102.242188 201.28125 -98.203125 C 199.863281 -94.160156 198.660156 -89.867188 197.671875 -85.328125 C 196.679688 -80.785156 195.898438 -76.457031 195.328125 -72.34375 C 194.765625 -68.226562 194.484375 -64.894531 194.484375 -62.34375 C 194.484375 -57.945312 195.441406 -54.363281 197.359375 -51.59375 C 199.273438 -48.832031 202.644531 -47.453125 207.46875 -47.453125 C 214.269531 -47.453125 220.082031 -51.066406 224.90625 -58.296875 Z M 224.90625 -58.296875 "/></g></g></g><g fill="#fff" fill-opacity="1"><g transform="translate(422.726731, 325.767366)"><g><path d="M 55.25 -23.484375 C 55.25 -18.347656 54.082031 -13.945312 51.75 -10.28125 C 49.414062 -6.625 46.265625 -3.84375 42.296875 -1.9375 C 38.335938 -0.0390625 33.894531 0.90625 28.96875 0.90625 C 24.039062 0.90625 19.644531 -0.078125 15.78125 -2.046875 C 11.914062 -4.015625 8.882812 -6.8125 6.6875 -10.4375 C 4.488281 -14.070312 3.390625 -18.421875 3.390625 -23.484375 L 3.390625 -30.765625 L 11.296875 -30.765625 L 11.296875 -23.578125 C 11.296875 -18.046875 12.925781 -13.847656 16.1875 -10.984375 C 19.445312 -8.117188 23.707031 -6.6875 28.96875 -6.6875 C 34.226562 -6.6875 38.523438 -8.132812 41.859375 -11.03125 C 45.191406 -13.9375 46.859375 -18.117188 46.859375 -23.578125 L 46.859375 -62.546875 L 29.765625 -62.546875 L 29.765625 -69.9375 L 55.25 -69.9375 Z M 55.25 -23.484375 "/></g></g></g><g fill="#fff" fill-opacity="1"><g transform="translate(486.565964, 325.767366)"><g><path d="M 55.25 -24.171875 C 55.25 -19.984375 54.53125 -16.320312 53.09375 -13.1875 C 51.664062 -10.050781 49.71875 -7.4375 47.25 -5.34375 C 44.789062 -3.25 42.046875 -1.679688 39.015625 -0.640625 C 35.984375 0.390625 32.867188 0.90625 29.671875 0.90625 C 25.472656 0.832031 21.441406 -0.117188 17.578125 -1.953125 C 13.710938 -3.785156 10.566406 -6.566406 8.140625 -10.296875 C 5.710938 -14.023438 4.5 -18.648438 4.5 -24.171875 C 4.5 -28.367188 5.210938 -32.03125 6.640625 -35.15625 C 8.078125 -38.289062 10.007812 -40.875 12.4375 -42.90625 C 14.863281 -44.9375 17.59375 -46.46875 20.625 -47.5 C 23.65625 -48.53125 26.769531 -49.046875 29.96875 -49.046875 C 34.226562 -49.046875 38.273438 -48.128906 42.109375 -46.296875 C 45.941406 -44.472656 49.085938 -41.726562 51.546875 -38.0625 C 54.015625 -34.394531 55.25 -29.765625 55.25 -24.171875 Z M 12.390625 -24.171875 C 12.390625 -20.109375 13.238281 -16.695312 14.9375 -13.9375 C 16.632812 -11.175781 18.832031 -9.09375 21.53125 -7.6875 C 24.226562 -6.289062 27.039062 -5.59375 29.96875 -5.59375 C 32.90625 -5.59375 35.703125 -6.289062 38.359375 -7.6875 C 41.023438 -9.09375 43.207031 -11.175781 44.90625 -13.9375 C 46.601562 -16.695312 47.453125 -20.109375 47.453125 -24.171875 C 47.453125 -28.234375 46.601562 -31.613281 44.90625 -34.3125 C 43.207031 -37.007812 41.007812 -39.023438 38.3125 -40.359375 C 35.613281 -41.691406 32.800781 -42.359375 29.875 -42.359375 C 26.9375 -42.359375 24.132812 -41.691406 21.46875 -40.359375 C 18.8125 -39.023438 16.632812 -37.007812 14.9375 -34.3125 C 13.238281 -31.613281 12.390625 -28.234375 12.390625 -24.171875 Z M 12.390625 -24.171875 "/></g></g></g><g fill="#fff" fill-opacity="1"><g transform="translate(546.309104, 325.767366)"><g><path d="M 20.375 -47.953125 L 38.0625 -47.953125 L 38.0625 -42.265625 L 20.375 -42.265625 L 20.375 -17.890625 C 20.375 -13.617188 21.253906 -10.46875 23.015625 -8.4375 C 24.785156 -6.40625 27.203125 -5.390625 30.265625 -5.390625 C 32.867188 -5.390625 35.96875 -6.054688 39.5625 -7.390625 L 40.46875 -1.296875 C 36 0.171875 31.832031 0.90625 27.96875 0.90625 C 23.238281 0.90625 19.492188 -0.554688 16.734375 -3.484375 C 13.972656 -6.421875 12.59375 -11.15625 12.59375 -17.6875 L 12.59375 -42.265625 L 2.296875 -42.765625 L 2.296875 -47.953125 L 13.09375 -47.953125 L 13.890625 -62.9375 L 20.375 -62.9375 Z M 20.375 -47.953125 "/></g></g></g><g fill="#fff" fill-opacity="1"><g transform="translate(588.369065, 325.767366)"><g><path d="M 55.25 -23.484375 C 55.25 -18.347656 54.082031 -13.945312 51.75 -10.28125 C 49.414062 -6.625 46.265625 -3.84375 42.296875 -1.9375 C 38.335938 -0.0390625 33.894531 0.90625 28.96875 0.90625 C 24.039062 0.90625 19.644531 -0.078125 15.78125 -2.046875 C 11.914062 -4.015625 8.882812 -6.8125 6.6875 -10.4375 C 4.488281 -14.070312 3.390625 -18.421875 3.390625 -23.484375 L 3.390625 -30.765625 L 11.296875 -30.765625 L 11.296875 -23.578125 C 11.296875 -18.046875 12.925781 -13.847656 16.1875 -10.984375 C 19.445312 -8.117188 23.707031 -6.6875 28.96875 -6.6875 C 34.226562 -6.6875 38.523438 -8.132812 41.859375 -11.03125 C 45.191406 -13.9375 46.859375 -18.117188 46.859375 -23.578125 L 46.859375 -62.546875 L 29.765625 -62.546875 L 29.765625 -69.9375 L 55.25 -69.9375 Z M 55.25 -23.484375 "/></g></g></g><g fill="#fff" fill-opacity="1"><g transform="translate(652.208311, 325.767366)"><g><path d="M 39.96875 -8.6875 C 38.832031 -6.488281 37.226562 -4.671875 35.15625 -3.234375 C 33.09375 -1.804688 30.828125 -0.757812 28.359375 -0.09375 C 25.898438 0.570312 23.441406 0.90625 20.984375 0.90625 C 18.046875 0.90625 15.28125 0.40625 12.6875 -0.59375 C 10.09375 -1.59375 7.992188 -3.125 6.390625 -5.1875 C 4.796875 -7.257812 4 -9.925781 4 -13.1875 C 4 -16.78125 4.828125 -19.757812 6.484375 -22.125 C 8.148438 -24.488281 10.382812 -26.253906 13.1875 -27.421875 C 15.988281 -28.585938 19.050781 -29.171875 22.375 -29.171875 C 25.101562 -29.171875 27.945312 -28.921875 30.90625 -28.421875 C 33.875 -27.921875 36.5625 -27.003906 38.96875 -25.671875 L 38.96875 -32.671875 C 38.96875 -35.398438 38.164062 -37.476562 36.5625 -38.90625 C 34.96875 -40.34375 32.988281 -41.34375 30.625 -41.90625 C 28.257812 -42.476562 25.976562 -42.765625 23.78125 -42.765625 C 21.050781 -42.765625 18.4375 -42.476562 15.9375 -41.90625 C 13.4375 -41.34375 11.15625 -40.460938 9.09375 -39.265625 L 7.796875 -45.453125 C 10.128906 -46.648438 12.773438 -47.546875 15.734375 -48.140625 C 18.703125 -48.742188 21.78125 -49.046875 24.96875 -49.046875 C 28.632812 -49.046875 32.082031 -48.546875 35.3125 -47.546875 C 38.539062 -46.554688 41.171875 -44.84375 43.203125 -42.40625 C 45.234375 -39.976562 46.1875 -36.664062 46.0625 -32.46875 L 46.0625 -12.390625 C 46.0625 -10.660156 46.109375 -9.175781 46.203125 -7.9375 C 46.304688 -6.707031 46.753906 -5.804688 47.546875 -5.234375 C 48.347656 -4.671875 49.71875 -4.523438 51.65625 -4.796875 L 51.75 0.296875 C 47.75 0.960938 44.785156 0.734375 42.859375 -0.390625 C 40.929688 -1.523438 39.96875 -4.289062 39.96875 -8.6875 Z M 38.859375 -19.6875 C 37.398438 -20.613281 35.285156 -21.410156 32.515625 -22.078125 C 29.753906 -22.742188 26.972656 -23.078125 24.171875 -23.078125 C 22.109375 -23.078125 20.128906 -22.773438 18.234375 -22.171875 C 16.335938 -21.578125 14.769531 -20.597656 13.53125 -19.234375 C 12.300781 -17.867188 11.6875 -16.019531 11.6875 -13.6875 C 11.6875 -11.625 12.203125 -10.023438 13.234375 -8.890625 C 14.265625 -7.753906 15.597656 -6.953125 17.234375 -6.484375 C 18.867188 -6.023438 20.582031 -5.796875 22.375 -5.796875 C 24.507812 -5.796875 26.707031 -6.160156 28.96875 -6.890625 C 31.238281 -7.628906 33.285156 -8.78125 35.109375 -10.34375 C 36.941406 -11.90625 38.191406 -13.984375 38.859375 -16.578125 Z M 38.859375 -19.6875 "/></g></g></g><g fill="#fff" fill-opacity="1"><g transform="translate(706.556587, 325.767366)"><g><path d="M 74.4375 0 L 74.4375 -28.671875 C 74.4375 -32.535156 73.632812 -35.816406 72.03125 -38.515625 C 70.4375 -41.210938 67.609375 -42.5625 63.546875 -42.5625 C 60.878906 -42.5625 58.476562 -41.941406 56.34375 -40.703125 C 54.21875 -39.472656 52.519531 -37.773438 51.25 -35.609375 C 49.988281 -33.453125 49.359375 -30.941406 49.359375 -28.078125 L 49.359375 0 L 41.5625 0 L 41.5625 -28.28125 C 41.5625 -32.34375 40.742188 -35.738281 39.109375 -38.46875 C 37.484375 -41.195312 34.570312 -42.5625 30.375 -42.5625 C 26.175781 -42.5625 22.878906 -41.226562 20.484375 -38.5625 C 18.085938 -35.894531 16.890625 -32.363281 16.890625 -27.96875 L 16.890625 0 L 9.09375 0 L 9.09375 -34.875 C 9.09375 -38.0625 8.789062 -40.222656 8.1875 -41.359375 C 7.59375 -42.492188 6.03125 -42.925781 3.5 -42.65625 L 3.390625 -48.359375 C 5.660156 -48.753906 7.757812 -48.9375 9.6875 -48.90625 C 11.625 -48.875 13.191406 -48.273438 14.390625 -47.109375 C 15.585938 -45.941406 16.1875 -43.757812 16.1875 -40.5625 C 17.914062 -43.757812 20.195312 -45.972656 23.03125 -47.203125 C 25.863281 -48.429688 29.007812 -49.046875 32.46875 -49.046875 C 40.457031 -49.046875 45.421875 -45.617188 47.359375 -38.765625 C 49.285156 -42.554688 51.832031 -45.21875 55 -46.75 C 58.164062 -48.28125 61.742188 -49.046875 65.734375 -49.046875 C 70.066406 -49.046875 73.429688 -48.113281 75.828125 -46.25 C 78.222656 -44.382812 79.921875 -41.921875 80.921875 -38.859375 C 81.921875 -35.796875 82.421875 -32.398438 82.421875 -28.671875 L 82.421875 0 Z M 74.4375 0 "/></g></g></g></svg>